# xmcd
#
# Track frame offsets:
#   150
#   9698
#   19724
#   29345
#   40335
#   53206
#   63730
#   78078
#   89249
#   101831
#   116458
#   129075
#   140727
#   150721
#   161938
#   172047
#   180181
#   190377
#   203457
#   214973
#   224661
#   237651
#
# Disc length: 3327 seconds
#
# Revision: 0
# Processed by: cddbd v1.4PL0 Copyright (c) Steve Scherf et al.
# Submitted via: uFREEDB 1.6.0
#
DISCID=440cfd16
DTITLE=Reeves, Jim - Country Classics, Vol. 3
DYEAR=1900
DGENRE=Country
TTITLE0=I Won't Forget You
TTITLE1=When Two Worlds Collide
TTITLE2=There's A Heartache Following Me
TTITLE3=You're The Only Good Thing
TTITLE4=Not Until The Next Time
TTITLE5=Is It Really Over
TTITLE6=This Is It
TTITLE7=Angels Don't Lie
TTITLE8=Nobody's Fool
TTITLE9=Guilty
TTITLE10=A Letter Of My Heart
TTITLE11=Adios Amigo
TTITLE12=I Won't Come In While He's There
TTITLE13=That's When I See The Blues
TTITLE14=It Hurts So Much To See The Blues
TTITLE15=Trying To Forget
TTITLE16=You Love Me Daddy
TTITLE17=Four Walls
TTITLE18=According To My Heart
TTITLE19=Billy Bayou
TTITLE20=Bimbo
TTITLE21=Mexican
EXTD=
EXTT0=
EXTT1=
EXTT2=
EXTT3=
EXTT4=
EXTT5=
EXTT6=
EXTT7=
EXTT8=
EXTT9=
EXTT10=
EXTT11=
EXTT12=
EXTT13=
EXTT14=
EXTT15=
EXTT16=
EXTT17=
EXTT18=
EXTT19=
EXTT20=
EXTT21=
PLAYORDER=
